<?xml version="1.0" encoding="UTF-8" standalone="no" ?>
<!DOCTYPE svg PUBLIC "-//W3C//DTD SVG 1.1//EN" "http://www.w3.org/Graphics/SVG/1.1/DTD/svg11.dtd">
<svg xmlns="http://www.w3.org/2000/svg" xmlns:xlink="http://www.w3.org/1999/xlink" version="1.1" width="1280" height="1024" viewBox="0 0 1280 1024" xml:space="preserve">
<desc>Created with Fabric.js 5.3.0</desc>
<defs>
</defs>
<g transform="matrix(1 0 0 1 640 512)" id="background-logo"  >
<rect style="stroke: none; stroke-width: 0; stroke-dasharray: none; stroke-linecap: butt; stroke-dashoffset: 0; stroke-linejoin: miter; stroke-miterlimit: 4; fill: rgb(255,255,255); fill-opacity: 0; fill-rule: nonzero; opacity: 1;"  paint-order="stroke"  x="-640" y="-512" rx="0" ry="0" width="1280" height="1024" />
</g>
<g transform="matrix(1.9211538461538462 0 0 1.9211538461538462 640 398.67481233198123)" id="logo-logo"  >
<g style=""  paint-order="stroke"   >
		<g transform="matrix(0 -1.0030806221353972 1.003080622135397 0 0 0)"  >
<g style=""  paint-order="stroke"   >
		<g transform="matrix(1 0 0 1 0 0)"  >
<path style="stroke: none; stroke-width: 1; stroke-dasharray: none; stroke-linecap: butt; stroke-dashoffset: 0; stroke-linejoin: miter; stroke-miterlimit: 4; fill: rgb(77,19,139); fill-rule: nonzero; opacity: 1;"  paint-order="stroke"  transform=" translate(-99.6350905431677, -100.00380481127695)" d="M 127.86 19.5 C 93.7 7 53.9 18.09 31 46.22 C 8.100000000000001 74.35 4.75 115.22 23.68 146.45999999999998 C 42.61 177.69999999999996 79.43 193.79 115.16 187 C 155.85 179.25 185 142.46 185.45 101.5 C 185.12839348875255 64.86458773443763 162.21218599238836 32.23515528606349 127.85999999999999 19.5 Z M 123.86 172.39 C 94.02129497970246 182.8995662155028 60.79234839522026 173.88198622024095 40.36 149.73 C 19.89 125.41 17.36 89.58999999999999 33.79 62.47999999999999 C 50 35.76 82.19 21.34 112.89 27.54 C 148.07999999999998 34.64 173.25 65.77 173.65 101.49000000000001 C 173.3 132.84 153.73 161.78 123.9 172.39 Z M 98.3 195.86 C 46.42014126230071 195.28686884901435 4.503131150985666 153.3698587376993 3.930000000000007 101.49000000000001 C 3.91 99 0 99 0 101.49 C 0.6053904839655958 155.52684351276318 44.26315648723682 199.1846095160344 98.3 199.79 C 100.84 199.82 100.84 195.88 98.3 195.86 Z M 97.94 7.08 C 150.0407591885915 7.653181812199722 192.13681818780023 49.74924081140845 192.70999999999998 101.84999999999994 C 192.70999999999998 106.07 199.30999999999997 106.08 199.26999999999998 101.85 C 198.63776311364927 46.15096926986165 153.63903073013836 1.1522368863507353 97.94000000000003 0.5200000000000102 C 93.72 0.48 93.72 7 97.94 7.08 Z M 191.81 109.31 C 190.15569486274438 110.96636767897049 190.15680947168585 113.65002670160582 191.81248992231752 115.305019638293 C 193.4681703729492 116.9600125749802 196.1518296270508 116.9600125749802 197.80751007768248 115.30501963829302 C 199.46319052831416 113.65002670160582 199.46430513725562 110.9663676789705 197.81 109.31 C 197.01733126629335 108.50875659354612 195.93708239174512 108.05789487684453 194.81 108.05789487684453 C 193.68291760825488 108.05789487684453 192.60266873370665 108.50875659354612 191.81 109.31 Z M 193 119 C 192.0009782553198 119 191.10032662495868 119.6017961796145 190.71801755469713 120.52477192205824 C 190.33570848443554 121.44774766450196 190.54703120025306 122.51013869931461 191.25344625046924 123.21655374953077 C 191.9598613006854 123.92296879974694 193.02225233549802 124.13429151556446 193.94522807794178 123.75198244530287 C 194.8682038203855 123.3696733750413 195.47 122.46902174468018 195.47 121.47 C 195.47 120.10585666791793 194.36414333208205 119 193 119 Z M 2.19 97.36 C 3.377237421022201 97.47583427925497 4.433605137889001 96.60733772791016 4.549524238909743 95.42010858568676 C 4.665443339930484 94.23287944346336 3.7970222628904446 93.17644967964146 2.609801405525909 93.06044575744664 C 1.4225805481613736 92.94444183525181 0.36608874277677783 93.81278743355435 0.25 95 C 0.19424159700637605 95.57022821623849 0.3673213896172156 96.13924765575658 0.7311539176805524 96.58184805072023 C 1.0949864457438891 97.02444844568387 1.619759845898605 97.30436381798368 2.1899999999999995 97.36 Z M 3.34 91.2 C 4.043322666334438 91.26833565957735 4.668968613970261 90.75380436419009 4.7377120726268425 90.05052143944246 C 4.806455531283424 89.34723851469482 4.292287093336135 88.7212943293677 3.5890441466244996 88.65214309474395 C 2.885801199912863 88.5829918601202 2.259558987341717 89.09679726776011 2.19 89.8 C 2.1259820645659135 90.50262910580793 2.6383161753112616 91.1263401971501 3.34 91.2 Z M 89.12 8.06 C 91.21960188787928 7.0242084966374065 92.08232920150375 4.482714919048352 91.04716256998051 2.382804880259739 C 90.01199593845726 0.2828948414711263 87.47075921466711 -0.5805887636195433 85.37054121094003 0.45395290438859437 C 83.27032320721297 1.488494572396732 82.40608338712738 4.0294742173326235 83.44 6.129999999999999 C 83.93689841111302 7.139508804592485 84.81467909847872 7.910114453423454 85.88003155251198 8.27210921333264 C 86.94538400654523 8.634103973241828 88.11093521753321 8.557799480013433 89.12 8.06 Z M 79.32000000000001 8.93 C 80.52891625063141 8.320149836094815 81.0177184279693 6.847998382460929 80.41365536617494 5.636180103661879 C 79.80959230438057 4.424361824862828 78.33979476342945 3.928526509843171 77.12510215921824 4.52678866035119 C 75.91040955500705 5.12505081085921 75.40755243734219 6.592460838840621 76 7.809999999999999 C 76.29020111250767 8.400231449911885 76.80382267052421 8.850345797101834 77.42703158363435 9.06058494851248 C 78.05024049674446 9.270824099923127 78.73156346004824 9.223823567154486 79.32 8.93 Z M 104.18 195.73000000000002 C 103.32933413527176 195.93297552594734 102.68500609907414 196.62886856753977 102.54799260513717 197.49261550966264 C 102.4109791112002 198.35636245178551 102.80832142399125 199.21749242457295 103.5544141114768 199.67375679884296 C 104.30050679896236 200.130021173113 105.24809947652903 200.09137067519816 105.95455529768515 199.57585961779776 C 106.66101111884126 199.06034856039736 106.9869025122911 198.1697192642015 106.78 197.32000000000002 C 106.49869360245116 196.16471453491062 105.33657247113472 195.454032766144 104.18 195.73 Z M 109.73 195.87 C 109.39886766881075 195.94570972959795 109.11233011625058 196.15190836236818 108.93535778110838 196.44184176249473 C 108.7583854459662 196.7317751626213 108.70597133826567 197.08088031368246 108.79 197.41 C 108.91025955170797 197.91433990206443 109.32288655762625 198.2963175168595 109.83499147671662 198.37737088467847 C 110.34709639580701 198.45842425249742 110.85751518279285 198.22254164163024 111.12764385842206 197.7799904070888 C 111.39777253405127 197.33743917254733 111.37424838190937 196.7756433390957 111.0680681686764 196.3572239638082 C 110.76188795544344 195.9388045885207 110.23353621817351 195.74641855487621 109.73 195.87 Z" stroke-linecap="round" />
</g>
</g>
</g>
</g>
</g>
<g transform="matrix(1.9211538461538462 0 0 1.9211538461538462 644.1383929989993 400.8269099694406)" id="tagline-3152705a-3764-47fc-9e9b-b1693627290e-logo"  >
<g style=""  paint-order="stroke"   >
		<g transform="matrix(1 0 0 1 0 0)" id="tagline-3152705a-3764-47fc-9e9b-b1693627290e-logo-path-0"  >
<path style="stroke: none; stroke-width: 0; stroke-dasharray: none; stroke-linecap: butt; stroke-dashoffset: 0; stroke-linejoin: miter; stroke-miterlimit: 4; fill: rgb(77,19,139); fill-rule: nonzero; opacity: 1;"  paint-order="stroke"  transform=" translate(-46.54431956589988, 31.962251515282283)" d="M 18.95 -14.34 L 9.26 -1.83 Q 6.56 1.61 4.85 1.98 Q 3.13 2.35 2 2.04 Q 0.87 1.74 0 1.04 L 0 1.04 Q -1.83 -0.52 -1.83 -3.13 L -1.83 -3.13 Q -1.83 -5.04 -0.65 -6.95 L -0.65 -6.95 Q 24.68 -47.24 26.9 -50.58 L 26.9 -50.58 Q 32.11 -58.32 32.94 -59.28 L 32.94 -59.28 L 34.03 -60.58 Q 38.89 -66.19 46.67 -66.19 L 46.67 -66.19 Q 52.71 -66.19 54.93 -63.53 L 54.93 -63.53 Q 55.45 -62.97 55.47 -61.36 Q 55.49 -59.75 55.63 -56.23 L 55.63 -56.23 L 55.84 -48.76 Q 55.97 -44.8 56.15 -40.68 L 56.15 -40.68 L 56.41 -32.59 Q 56.75 -24.77 57.02 -19.12 L 57.02 -19.12 Q 58.71 -22.12 60.45 -26.12 L 60.45 -26.12 L 64.14 -34.55 Q 69.18 -45.85 73.88 -52.41 L 73.88 -52.41 Q 76.83 -56.62 83.61 -56.62 L 83.61 -56.62 Q 88.61 -56.62 92.56 -54.45 L 92.56 -54.45 Q 94.95 -53.15 94.91 -52.15 L 94.91 -52.15 Q 94.91 -51.24 94.26 -50.41 L 94.26 -50.41 L 93.35 -49.15 Q 90.26 -44.85 87.26 -40.2 L 87.26 -40.2 L 81.44 -30.94 Q 69.18 -10.69 67.23 -7.69 Q 65.27 -4.69 64.25 -3.5 Q 63.23 -2.3 61.6 -1.48 Q 59.97 -0.65 57.88 0 L 57.88 0 Q 53.37 1.43 50.37 1.43 L 50.37 1.43 Q 45.33 1.43 43.54 0 L 43.54 0 Q 41.63 -1.74 38.16 -20.16 L 38.16 -20.16 L 36.68 -28.33 Q 35.98 -32.51 35.42 -36.63 L 35.42 -36.63 Q 33.98 -34.42 31.72 -31.38 L 31.72 -31.38 L 18.95 -14.34 Z" stroke-linecap="round" />
</g>
</g>
</g>
<g transform="matrix(1.9211538461538462 0 0 1.9211538461538462 639.480756285958 659.9733532765229)" id="tagline-347795ba-7209-4e75-b143-2a3769343477-logo"  >
<g style=""  paint-order="stroke"   >
		<g transform="matrix(1 0 0 1 0 0)" id="tagline-347795ba-7209-4e75-b143-2a3769343477-logo-path-0"  >
<path style="stroke: none; stroke-width: 0; stroke-dasharray: none; stroke-linecap: butt; stroke-dashoffset: 0; stroke-linejoin: miter; stroke-miterlimit: 4; fill: rgb(77,19,139); fill-rule: nonzero; opacity: 1;"  paint-order="stroke"  transform=" translate(-118.02, 10.590000000000002)" d="M 18.63 -21.15 L 18.63 0 L 15.9 0 L 4.92 -16.71 L 4.92 0 L 2.19 0 L 2.19 -21.15 L 4.92 -21.15 L 15.9 -4.41 L 15.9 -21.15 L 18.63 -21.15 Z M 42.81 -21.42 Q 45.75 -21.42 48.11 -20.04 Q 50.46 -18.66 51.81 -16.18 Q 53.16 -13.71 53.16 -10.59 L 53.16 -10.59 Q 53.16 -7.47 51.81 -5 Q 50.46 -2.52 48.11 -1.14 Q 45.75 0.24 42.81 0.24 L 42.81 0.24 Q 39.87 0.24 37.48 -1.14 Q 35.1 -2.52 33.75 -5 Q 32.4 -7.47 32.4 -10.59 L 32.4 -10.59 Q 32.4 -13.71 33.75 -16.18 Q 35.1 -18.66 37.48 -20.04 Q 39.87 -21.42 42.81 -21.42 L 42.81 -21.42 Z M 42.81 -18.87 Q 40.62 -18.87 38.89 -17.86 Q 37.17 -16.86 36.2 -14.98 Q 35.22 -13.11 35.22 -10.59 L 35.22 -10.59 Q 35.22 -8.1 36.2 -6.21 Q 37.17 -4.32 38.89 -3.31 Q 40.62 -2.31 42.81 -2.31 L 42.81 -2.31 Q 44.97 -2.31 46.7 -3.33 Q 48.42 -4.35 49.39 -6.22 Q 50.37 -8.1 50.37 -10.59 L 50.37 -10.59 Q 50.37 -13.11 49.39 -14.98 Q 48.42 -16.86 46.7 -17.86 Q 44.97 -18.87 42.81 -18.87 L 42.81 -18.87 Z M 65.25 -21.15 L 79.92 -21.15 L 79.92 -18.93 L 73.95 -18.93 L 73.95 0 L 71.22 0 L 71.22 -18.93 L 65.25 -18.93 L 65.25 -21.15 Z M 104.4 -18.93 L 95.46 -18.93 L 95.46 -11.7 L 103.5 -11.7 L 103.5 -9.6 L 95.46 -9.6 L 95.46 -2.22 L 104.4 -2.22 L 104.4 0 L 92.73 0 L 92.73 -21.15 L 104.4 -21.15 L 104.4 -18.93 Z M 131.4 -5.49 Q 131.4 -3.99 130.68 -2.7 Q 129.96 -1.41 128.49 -0.6 Q 127.02 0.21 124.86 0.21 L 124.86 0.21 Q 122.76 0.21 121.13 -0.55 Q 119.49 -1.32 118.52 -2.65 Q 117.54 -3.99 117.39 -5.7 L 117.39 -5.7 L 120.3 -5.7 Q 120.39 -4.8 120.91 -3.94 Q 121.44 -3.09 122.41 -2.53 Q 123.39 -1.98 124.77 -1.98 L 124.77 -1.98 Q 126.57 -1.98 127.53 -2.94 Q 128.49 -3.9 128.49 -5.4 L 128.49 -5.4 Q 128.49 -6.69 127.81 -7.5 Q 127.14 -8.31 126.15 -8.78 Q 125.16 -9.24 123.45 -9.78 L 123.45 -9.78 Q 121.44 -10.44 120.22 -11.03 Q 119.01 -11.61 118.16 -12.78 Q 117.3 -13.95 117.3 -15.87 L 117.3 -15.87 Q 117.3 -17.52 118.09 -18.78 Q 118.89 -20.04 120.38 -20.73 Q 121.86 -21.42 123.87 -21.42 L 123.87 -21.42 Q 126.99 -21.42 128.82 -19.9 Q 130.65 -18.39 130.95 -16.05 L 130.95 -16.05 L 128.01 -16.05 Q 127.77 -17.31 126.72 -18.27 Q 125.67 -19.23 123.87 -19.23 L 123.87 -19.23 Q 122.22 -19.23 121.23 -18.38 Q 120.24 -17.52 120.24 -15.96 L 120.24 -15.96 Q 120.24 -14.73 120.88 -13.96 Q 121.53 -13.2 122.49 -12.76 Q 123.45 -12.33 125.13 -11.79 L 125.13 -11.79 Q 127.17 -11.13 128.41 -10.53 Q 129.66 -9.93 130.53 -8.71 Q 131.4 -7.5 131.4 -5.49 L 131.4 -5.49 Z M 176.85 0 L 175.08 -4.89 L 165.78 -4.89 L 164.01 0 L 161.07 0 L 168.9 -20.76 L 171.99 -20.76 L 179.79 0 L 176.85 0 Z M 166.56 -7.02 L 174.3 -7.02 L 170.43 -17.7 L 166.56 -7.02 Z M 199.38 -8.52 L 195.39 -8.52 L 195.39 0 L 192.66 0 L 192.66 -21.15 L 199.38 -21.15 Q 203.01 -21.15 204.81 -19.45 Q 206.61 -17.76 206.61 -14.82 L 206.61 -14.82 Q 206.61 -11.85 204.75 -10.19 Q 202.89 -8.52 199.38 -8.52 L 199.38 -8.52 Z M 199.14 -10.8 Q 201.63 -10.8 202.73 -11.85 Q 203.82 -12.9 203.82 -14.82 L 203.82 -14.82 Q 203.82 -16.8 202.73 -17.84 Q 201.63 -18.87 199.14 -18.87 L 199.14 -18.87 L 195.39 -18.87 L 195.39 -10.8 L 199.14 -10.8 Z M 226.62 -8.52 L 222.63 -8.52 L 222.63 0 L 219.9 0 L 219.9 -21.15 L 226.62 -21.15 Q 230.25 -21.15 232.05 -19.45 Q 233.85 -17.76 233.85 -14.82 L 233.85 -14.82 Q 233.85 -11.85 231.99 -10.19 Q 230.13 -8.52 226.62 -8.52 L 226.62 -8.52 Z M 226.38 -10.8 Q 228.87 -10.8 229.97 -11.85 Q 231.06 -12.9 231.06 -14.82 L 231.06 -14.82 Q 231.06 -16.8 229.97 -17.84 Q 228.87 -18.87 226.38 -18.87 L 226.38 -18.87 L 222.63 -18.87 L 222.63 -10.8 L 226.38 -10.8 Z" stroke-linecap="round" />
</g>
</g>
</g>
</svg>